<?xml version="1.0" standalone="no"?>
<!DOCTYPE svg PUBLIC "-//W3C//DTD SVG 20010904//EN"
 "http://www.w3.org/TR/2001/REC-SVG-20010904/DTD/svg10.dtd">
<svg version="1.0" xmlns="http://www.w3.org/2000/svg"
 width="347.000000pt" height="327.000000pt" viewBox="0 0 347.000000 327.000000"
 preserveAspectRatio="xMidYMid meet">
<metadata>
Created by potrace 1.16, written by Peter Selinger 2001-2019
</metadata>
<g transform="translate(0.000000,327.000000) scale(0.100000,-0.100000)"
fill="#000000" stroke="none">
<path d="M0 1635 l0 -1635 1735 0 1735 0 0 1635 0 1635 -1735 0 -1735 0 0
-1635z m2014 1072 l206 -158 0 -974 0 -973 -107 -61 -108 -60 -3 494 -2 495
-205 0 -205 0 -2 -494 -3 -495 -107 62 -108 61 0 971 0 971 208 162 c114 88
212 160 219 159 6 -1 104 -73 217 -160z m-814 -1147 c0 -467 -2 -850 -5 -850
-2 0 -50 27 -107 59 l-103 59 -115 303 -115 303 -3 -232 c-1 -128 -5 -232 -9
-232 -3 0 -53 26 -109 57 l-104 58 0 412 0 411 106 82 c58 45 109 78 114 74 4
-5 42 -99 83 -209 42 -110 91 -238 109 -285 l33 -85 5 385 5 384 100 78 c55
42 103 77 108 78 4 0 7 -382 7 -850z m1470 600 c135 -111 256 -211 269 -221
l24 -19 -81 -197 c-45 -109 -122 -297 -172 -417 -50 -121 -89 -223 -88 -227 3
-9 128 61 161 89 13 12 17 31 17 84 l0 68 90 0 90 0 0 -138 0 -138 -287 -167
c-159 -91 -296 -169 -305 -173 -17 -6 -18 4 -18 126 l0 132 96 246 c53 136
129 333 170 437 41 105 74 195 74 201 0 7 -30 38 -67 69 l-68 58 -3 -117 -3
-116 -99 0 -100 0 0 331 0 330 28 -20 c15 -10 137 -110 272 -221z"/>
<path d="M1687 2457 l-97 -82 2 -325 3 -325 203 -3 202 -2 0 329 0 329 -99 81
c-55 44 -103 81 -108 80 -4 0 -52 -37 -106 -82z"/>
</g>
</svg>
